<svg width="29" height="25" viewBox="0 0 29 25" fill="none" xmlns="http://www.w3.org/2000/svg">
<g clip-path="url(#clip0_2004_2172)">
<path d="M8.01689 21.9831V5.21846L11.1807 0.999986H24.8362L28 5.21846V21.9831C28 22.7798 27.3541 23.4257 26.5574 23.4257H9.45947C8.66275 23.4257 8.01689 22.7798 8.01689 21.9831Z" stroke="#004CFF" stroke-width="2" stroke-linecap="round" stroke-linejoin="round"/>
<path d="M9.01687 4.8847H27" stroke="#004CFF" stroke-width="2" stroke-linecap="round" stroke-linejoin="round"/>
<path d="M22.8931 9.76989C22.8931 12.4679 20.7059 14.655 18.0079 14.655C15.31 14.655 13.1228 12.4679 13.1228 9.76989" stroke="#004CFF" stroke-width="2" stroke-linecap="round" stroke-linejoin="round"/>
</g>
<g clip-path="url(#clip1_2004_2172)">
<path d="M16.9998 15.9998C16.9998 20.418 13.4181 23.9997 8.99988 23.9997C4.58166 23.9997 0.999986 20.418 0.999986 15.9998C0.999986 11.5816 4.58166 7.99989 8.99988 7.99989C13.4181 7.99989 16.9998 11.5816 16.9998 15.9998Z" fill="white" stroke="#004BFE" stroke-width="2"/>
<g clip-path="url(#clip2_2004_2172)">
<path d="M9.08188 12.7518V19.4117" stroke="#004BFE" stroke-width="2" stroke-linecap="round"/>
<path d="M12.4118 16.0818H5.75194" stroke="#004BFE" stroke-width="2" stroke-linecap="round"/>
</g>
</g>
<defs>
<clipPath id="clip0_2004_2172">
<rect width="21.9834" height="24.426" fill="white" transform="translate(7.0169)"/>
</clipPath>
<clipPath id="clip1_2004_2172">
<rect width="18" height="18" fill="white" transform="translate(0 6.9999)"/>
</clipPath>
<clipPath id="clip2_2004_2172">
<rect width="6.65998" height="6.65998" fill="white" transform="translate(5.75194 12.7518)"/>
</clipPath>
</defs>
</svg>
